#!OML:ASF E:\inclinewalkrobotboard\Project 1\Capture day 1\Session 1\subject1.ASF
:FULLY-SPECIFIED
:DEGREES
80
root 6.63592 16.615 35.1361 -169.777 0.298831 178.967
lowerback -8.98605 1.9305 -5.96109
upperback 1.44832 3.18155 1.13762
thorax 6.18773 1.33045 4.99813
lowerneck -3.55112 0.54056 -2.02993
upperneck 20.3167 -1.47746 5.58532
head 6.80398 -0.948195 1.97879
rclavicle -1.36664e-014 -9.54166e-015
rhumerus -35.3889 -28.9165 -76.3264
rradius 21.6169
rwrist 22.4345
rhand -15.335 -43.8787
rfingers 7.12502
rthumb 10.8416 -73.5788
lclavicle -1.36664e-014 -9.54166e-015
lhumerus -25.8736 3.70229 89.7528
lradius 14.265
lwrist -33.0926
lhand -26.5725 -22.9732
lfingers 7.12502
lthumb -0.00718451 7.00659
rfemur -6.79101 1.22069 19.5594
rtibia 7.48377
rfoot -10.9732 -3.85754
rtoes -32.1128
lfemur -9.31251 -9.75599 -19.4608
ltibia 11.0773
lfoot -14.9991 1.95719
ltoes -58.5221
81
root 6.63749 16.6152 35.132 -169.725 0.357784 178.962
lowerback -8.98806 1.97359 -5.90263
upperback 1.40959 3.23306 1.11694
thorax 6.14511 1.36108 4.94849
lowerneck -3.1516 0.557115 -1.90346
upperneck 19.0642 -1.17026 5.14291
head 6.31918 -0.785648 1.83282
rclavicle -2.89232e-014 1.41137e-014
rhumerus -35.5031 -28.8783 -76.3796
rradius 21.5314
rwrist 21.5429
rhand -15.7695 -43.7806
rfingers 7.12502
rthumb 10.4225 -73.5022
lclavicle -2.89232e-014 1.41137e-014
lhumerus -25.8854 4.0628 89.6146
lradius 14.0906
lwrist -33.5485
lhand -26.5828 -23.046
lfingers 7.12502
lthumb -0.0171593 6.93372
rfemur -6.85588 1.18507 19.5504
rtibia 7.49281
rfoot -10.9757 -3.75992
rtoes -32.2189
lfemur -9.33398 -9.68454 -19.4534
ltibia 11.0607
lfoot -14.9567 2.00341
ltoes -58.5248
82
root 6.63967 16.6162 35.1257 -169.715 0.383777 178.915
lowerback -8.94524 1.96949 -5.87584
upperback 1.38077 3.2225 1.09631
thorax 6.09389 1.36006 4.90677
lowerneck -3.18942 0.731341 -1.82949
upperneck 18.068 -0.699848 4.87316
head 5.99286 -0.526697 1.76215
rclavicle -3.50358e-014 -2.38542e-015
rhumerus -35.4779 -28.6571 -76.5333
rradius 21.2309
rwrist 20.2666
rhand -18.3335 -42.3301
rfingers 7.12502
rthumb 7.94842 -72.1606
lclavicle -3.50358e-014 -2.38542e-015
lhumerus -25.9355 4.39874 89.4778
lradius 13.98
lwrist -33.8238
lhand -26.6079 -23.0598
lfingers 7.12502
lthumb -0.0413425 6.91993
rfemur -6.8478 1.18399 19.4937
rtibia 7.48152
rfoot -10.9978 -3.69784
rtoes -31.8582
lfemur -9.28616 -9.67378 -19.5073
ltibia 10.9876
lfoot -14.913 2.03122
ltoes -58.5395
83
root 6.64312 16.6161 35.119 -169.713 0.359528 178.849
lowerback -8.87178 1.993 -5.86219
upperback 1.31314 3.24913 1.04931
thorax 5.98021 1.38089 4.84619
lowerneck -3.04654 0.844455 -1.87416
upperneck 17.1115 -0.364779 4.73178
head 5.65634 -0.343171 1.74183
rclavicle -1.19768e-014 -4.37326e-015
rhumerus -35.6224 -28.5661 -76.5412
rradius 21.0769
rwrist 19.7094
rhand -19.962 -41.4615
rfingers 7.12502
rthumb 6.37654 -71.3455
lclavicle -1.19768e-014 -4.37326e-015
lhumerus -26.0521 4.28124 89.4859
lradius 13.9926
lwrist -33.7847
lhand -26.5765 -22.9151
lfingers 7.12502
lthumb -0.0110821 7.06464
rfemur -6.79621 1.23908 19.4294
rtibia 7.45193
rfoot -11.0343 -3.74596
rtoes -31.3066
lfemur -9.26347 -9.78167 -19.5831
ltibia 10.9778
lfoot -14.9163 2.06712
ltoes -58.5215
84
root 6.64681 16.6157 35.1148 -169.71 0.313879 178.837
lowerback -8.79317 2.03496 -5.8216
upperback 1.26085 3.29609 1.02432
thorax 5.87764 1.41136 4.79644
lowerneck -2.85667 0.977232 -1.64321
upperneck 16.0206 0.0236463 4.3054
head 5.27348 -0.131621 1.58698
rclavicle -6.80837e-015 7.95139e-016
rhumerus -35.7336 -28.4638 -76.5967
rradius 21.0375
rwrist 19.2353
rhand -21.2415 -41.6521
rfingers 7.12502
rthumb 5.14114 -71.5697
lclavicle -6.80837e-015 7.95139e-016
lhumerus -26.1113 4.02805 89.5825
lradius 14.0711
lwrist -33.6118
lhand -26.5386 -22.9985
lfingers 7.12502
lthumb 0.0255607 6.98128
rfemur -6.76499 1.25764 19.4361
rtibia 7.45359
rfoot -11.0631 -3.81974
rtoes -31.2835
lfemur -9.29189 -9.88497 -19.5848
ltibia 11.058
lfoot -14.9936 2.08349
ltoes -58.55
85
root 6.64981 16.6158 35.1122 -169.729 0.276239 178.877
lowerback -8.70412 2.0527 -5.75856
upperback 1.24726 3.30563 1.04714
thorax 5.81331 1.42072 4.7807
lowerneck -2.91171 1.2335 -1.54207
upperneck 15.1173 0.542739 4.0331
head 4.98997 0.147447 1.50961
rclavicle 7.50412e-015 3.97569e-016
rhumerus -35.7697 -28.4249 -76.5804
rradius 21.048
rwrist 19.5007
rhand -22.1818 -42.1768
rfingers 7.12502
rthumb 4.23323 -72.1144
lclavicle 7.50412e-015 3.97569e-016
lhumerus -26.1283 3.92465 89.6728
lradius 14.1643
lwrist -33.4459
lhand -26.4922 -23.2366
lfingers 7.12502
lthumb 0.0703863 6.74309
rfemur -6.74085 1.26797 19.5048
rtibia 7.47364
rfoot -11.0561 -3.88963
rtoes -31.6709
lfemur -9.29316 -9.92729 -19.5202
ltibia 11.1391
lfoot -15.1077 2.07838
ltoes -58.6477
86
root 6.65206 16.6143 35.1084 -169.726 0.282546 178.858
lowerback -8.66698 2.04688 -5.77015
upperback 1.235 3.29481 1.07831
thorax 5.77811 1.41623 4.81633
lowerneck -2.87709 1.24007 -1.84675
upperneck 14.5836 0.659943 3.94531
head 4.81525 0.20172 1.53643
rclavicle 2.34566e-014 1.59028e-015
rhumerus -35.9481 -28.8434 -76.1061
rradius 21.1185
rwrist 21.5912
rhand -20.6997 -42.878
rfingers 7.12502
rthumb 5.66428 -72.7823
lclavicle 2.34566e-014 1.59028e-015
lhumerus -26.1518 3.9069 89.7747
lradius 14.2399
lwrist -33.4129
lhand -26.5257 -23.276
lfingers 7.12502
lthumb 0.037994 6.70379
rfemur -6.7514 1.28447 19.4941
rtibia 7.49508
rfoot -11.0498 -3.92706
rtoes -32.0666
lfemur -9.2354 -9.97275 -19.5336
ltibia 11.0621
lfoot -15.1121 2.14478
ltoes -58.648
87
root 6.6539 16.612 35.1027 -169.653 0.270352 178.744
lowerback -8.72039 2.03253 -5.85756
upperback 1.20477 3.28858 1.06978
thorax 5.77323 1.41146 4.85776
lowerneck -3.15972 1.5685 -1.4415
upperneck 13.7964 1.27367 3.3668
head 4.61261 0.528762 1.31916
rclavicle -2.86747e-014 5.1684e-015
rhumerus -36.0606 -29.2217 -75.7373
rradius 21.0045
rwrist 22.7683
rhand -19.8895 -42.828
rfingers 7.12502
rthumb 6.44651 -72.7099
lclavicle -2.86747e-014 5.1684e-015
lhumerus -26.1308 3.83144 89.8881
lradius 14.2815
lwrist -33.4064
lhand -26.556 -23.4629
lfingers 7.12502
lthumb 0.00872817 6.51681
rfemur -6.80959 1.24548 19.3654
rtibia 7.48126
rfoot -11.0654 -3.93564
rtoes -32.094
lfemur -9.19123 -10.0845 -19.6631
ltibia 10.8885
lfoot -15.0471 2.24905
ltoes -58.6499
88
root 6.65563 16.6117 35.0961 -169.592 0.20342 178.659
lowerback -8.77083 2.04302 -5.88087
upperback 1.16433 3.3102 1.02735
thorax 5.75761 1.42385 4.83009
lowerneck -3.31262 1.74406 -1.46887
upperneck 12.7199 1.62747 3.23838
head 4.78205 0.707721 1.43626
rclavicle 3.23025e-015 3.97569e-016
rhumerus -36.1046 -29.3022 -75.7053
rradius 20.8819
rwrist 22.6761
rhand -20.2693 -42.2168
rfingers 7.12502
rthumb 6.07979 -72.1096
lclavicle 3.23025e-015 3.97569e-016
lhumerus -26.0269 3.71307 89.9546
lradius 14.1979
lwrist -33.439
lhand -26.6035 -24.1029
lfingers 7.12502
lthumb -0.0370956 5.8768
rfemur -6.81491 1.18833 19.2764
rtibia 7.45687
rfoot -11.0987 -3.9401
rtoes -31.7842
lfemur -9.18587 -10.1859 -19.7657
ltibia 10.8265
lfoot -15.0317 2.27748
ltoes -58.7452
